<svg width="1024" height="1024" viewBox="0 0 512 512" fill="none" xmlns="http://www.w3.org/2000/svg">
  <!-- Transparent Version -->
  <linearGradient id="yellowGrad" x1="0.1" y1="0.1" x2="0.9" y2="0.9">
    <stop offset="0%" stop-color="#FFC500" />
    <stop offset="100%" stop-color="#FF8A00" />
  </linearGradient>
  <rect x="176" y="60" width="160" height="160" rx="46" fill="url(#yellowGrad)" />
  
  <path d="M 206 170 L 216 110 L 243 140 L 256 95 L 269 140 L 296 110 L 306 170 Z" fill="none" stroke="#0A0C10" stroke-width="12" stroke-linejoin="round" stroke-linecap="round"/>
  <line x1="220" y1="195" x2="292" y2="195" stroke="#0A0C10" stroke-width="12" stroke-linecap="round"/>
  
  <text x="256" y="305" font-family="'Inter', 'Arial Black', sans-serif" font-weight="900" font-size="76" fill="#FFFFFF" text-anchor="middle" letter-spacing="-1">ROYAL</text>
  <text x="256" y="380" font-family="'Inter', 'Arial Black', sans-serif" font-weight="900" font-size="76" fill="#FF9E00" text-anchor="middle" letter-spacing="-1">TABLE</text>
  
  <g stroke="#FF9E00" stroke-width="2.5" fill="none" stroke-linejoin="round" stroke-linecap="round">
    <g transform="translate(160, 420) scale(1.5)">
      <path d="M5 11c0-1.07 1.4-3.5 3-5.5 1.54-1.92 3-3.05 4-4 1 .95 2.46 2.08 4 4 1.6 2 3 4.43 3 5.5a6 6 0 1 1-12 0Z"/><path d="M12 17v4"/><path d="M9 21h6"/>
    </g>
    <g transform="translate(212, 420) scale(1.5)">
      <path d="M19 14c1.49-1.46 3-3.21 3-5.5A5.5 5.5 0 0 0 16.5 3c-1.76 0-3 .5-4.5 2-1.5-1.5-2.74-2-4.5-2A5.5 5.5 0 0 0 2 8.5c0 2.3 1.5 4.05 3 5.5l7 7Z"/>
    </g>
    <g transform="translate(264, 420) scale(1.5)">
      <path d="M17.28 9.05a5.5 5.5 0 1 0-10.56 0A5.5 5.5 0 1 0 12 17.66a5.5 5.5 0 1 0 5.28-8.6Z"/><path d="M12 17.66L12 22"/><path d="M9 22h6"/>
    </g>
    <g transform="translate(316, 420) scale(1.5)">
      <path d="M12 2 L22 12 L12 22 L2 12 Z"/>
    </g>
  </g>
</svg>
