<?xml version="1.0" encoding="utf-8" ?><svg xmlns="http://www.w3.org/2000/svg" xmlns:xlink="http://www.w3.org/1999/xlink" width="1024" height="1024" viewBox="0 0 1024 1024"><path fill="#F6BA54" d="M302.412 455.34L302.361 412.601C302.355 403.98 302.036 392.276 302.825 383.859C304.856 363.245 313.922 343.959 328.499 329.242C349.395 308.152 371.671 302.333 400.468 302.321L560.586 302.492L608.729 302.283C621.162 302.24 637.456 301.678 649.335 304.198C666.52 307.904 682.26 316.521 694.642 329.001C706.641 340.965 715.143 355.981 719.23 372.425C721.775 382.851 721.557 393.816 721.799 404.548C722.131 418.803 722.266 433.062 722.203 447.321C722.505 483.092 722.571 518.865 722.4 554.636C722.368 559.512 722.287 564.387 722.158 569.26C722.022 588.647 722 608.035 722.095 627.422C721.963 654.771 713.739 676.818 694.002 696.219C681.887 708.03 666.681 716.176 650.137 719.717C637.017 722.446 618.905 722.044 605.469 722.048L557.481 722.049C505.073 722.041 452.64 722.008 400.232 721.973C372.978 721.955 347.645 714.809 328.125 694.624C316.61 682.725 308.549 667.918 304.804 651.789C301.465 637.161 302.035 622.222 302.049 607.303L302.092 569.459C302.108 531.683 301.684 493.02 302.412 455.34Z"/><defs><linearGradient id="gradient_0" gradientUnits="userSpaceOnUse" x1="511.7597" y1="720.50989" x2="511.73807" y2="456.48288"><stop offset="0" stop-color="#E5871A"/><stop offset="1" stop-color="#F3AA2B"/></linearGradient></defs><path fill="url(#gradient_0)" d="M302.412 455.34C313.444 457.542 399.644 483.935 404.859 482.123C409.531 498.934 413.984 515.806 418.217 532.734C420.905 543.144 423.42 554.75 427.613 564.533C433.969 579.362 454.983 576.6 468.232 576.553L504.683 576.477L547.539 576.539C556.278 576.582 564.949 576.687 573.683 576.458C599.952 575.769 599.715 553.931 605.098 534.82C606.021 535.858 606.614 536.444 607.986 536.876C618.531 540.201 629.695 542.962 640.366 545.807C661.539 551.428 682.682 557.16 703.795 563.002C709.068 564.481 715.531 566.255 720.9 567.779C721.463 567.938 721.881 568.75 722.158 569.26C722.022 588.647 722 608.035 722.095 627.422C721.963 654.771 713.739 676.818 694.002 696.219C681.887 708.03 666.681 716.176 650.137 719.717C637.017 722.446 618.905 722.044 605.469 722.048L557.481 722.049C505.073 722.041 452.64 722.008 400.232 721.973C372.978 721.955 347.645 714.809 328.125 694.624C316.61 682.725 308.549 667.918 304.804 651.789C301.465 637.161 302.035 622.222 302.049 607.303L302.092 569.459C302.108 531.683 301.684 493.02 302.412 455.34Z"/><path fill="#212121" d="M442.671 596.734C454.518 596.423 467.85 596.794 479.792 596.852L540.544 596.93C549.623 596.96 558.703 596.92 567.782 596.811C574.209 596.733 583.471 596.083 589.551 597.294C600.359 599.445 599.318 611.159 591.038 616.465L581.625 616.743C544.147 617.518 506.086 616.105 468.552 616.651C457.281 616.815 445.335 616.885 434.091 616.452C428.243 612.887 423.684 606.942 429.583 600.624C433.398 596.538 437.467 596.839 442.671 596.734Z"/><path fill="#212121" d="M467.721 478.666C474.992 466.257 480.484 454.816 486.8 441.906C489.555 436.276 496.76 421.681 500.519 417.286C502.556 414.86 505.32 413.155 508.401 412.423C523.839 408.612 529.243 426.984 535.015 437.494C542.399 450.941 548.62 465.466 556.227 478.766C567.323 470.27 577.657 461.541 588.432 452.709C592.777 449.147 601.584 441.485 605.982 439.098C608.437 437.772 611.237 437.223 614.011 437.522C617.837 437.979 621.305 439.996 623.592 443.097C626.344 446.825 626.693 451.167 625.737 455.537C623.628 465.172 620.913 474.951 618.415 484.493C614.063 501.292 609.624 518.068 605.098 534.82C599.715 553.931 599.952 575.769 573.683 576.458C564.949 576.687 556.278 576.582 547.539 576.539L504.683 576.477L468.232 576.553C454.983 576.6 433.969 579.362 427.613 564.533C423.42 554.75 420.905 543.144 418.217 532.734C413.984 515.806 409.531 498.934 404.859 482.123C402.444 472.224 394.872 452.384 399.551 444.421C401.524 441.13 404.733 438.768 408.461 437.862C412.689 436.844 417.032 437.871 420.451 440.469C436.69 452.81 451.163 466.623 467.721 478.666Z"/><defs><linearGradient id="gradient_1" gradientUnits="userSpaceOnUse" x1="494.04102" y1="566.19763" x2="523.63171" y2="441.88785"><stop offset="0" stop-color="#ED9812"/><stop offset="1" stop-color="#F7C16A"/></linearGradient></defs><path fill="url(#gradient_1)" d="M454.439 493.966C478.71 509.311 486.936 484.811 495.68 467.74C500.905 457.461 506.295 447.268 511.85 437.163C514.512 440.938 517.771 447.573 519.973 451.812L532.711 476.558C537.41 485.75 541.904 497.25 553.636 498.449C557.54 498.822 561.47 498.11 564.995 496.392C570.408 493.773 595.589 472.736 602.052 467.497C598.617 483.52 593.66 501.466 589.603 517.403C586.92 527.94 582.032 547.245 577.909 556.466C554.366 557.37 527.569 556.436 503.746 556.619C487.178 556.746 461.72 557.6 446.02 556.164C442.896 548.844 439.772 537.16 437.674 529.455C434.098 516.099 430.59 502.726 427.151 489.334C424.971 482.292 423.138 474.185 421.354 466.959C432.132 475.078 444.245 485.155 454.439 493.966Z"/><path fill="#F6BA54" d="M421.354 466.959C432.132 475.078 444.245 485.155 454.439 493.966C454.042 494.831 454.074 494.692 453.474 495.452C448.357 496.503 432.722 491.268 427.151 489.334C424.971 482.292 423.138 474.185 421.354 466.959Z"/></svg>